http://kickass.to/toy-story-hablada-en-espa%C3%B1ol-t3159852.html
Download Toy Story (hablada en español) Torrent - KickassTorrents
login / register
Community
blog
FAQ
Browse
latest
Search
Advanced search 0
0
report fake
Toy Story (hablada en español)
seeders: 22
leechers: 6
Download torrent
Added on Nov 3, 2009 in Movies	Downloaded 10 times.
Main
Technical
Comments Toy Story (hablada en español) (Size: 701.71 MB)
Toy.Story.SP.DVDRip-XviD-AC3-Emystein.avi
701.71 MB
Description
General
Complete name : D:\download\Toy.Story.SP.DVDRip-XviD-AC3-Emystein.avi
Format : AVI
Format/Info : Audio Video Interleave
File size : 702 MiB
Duration : 1h 20mn
Overall bit rate : 1 217 Kbps
Writing application : VirtualDubMod 1.5.4.1 (build 2178/release)
Writing library : VirtualDubMod build 2178/release
Video
ID : 0
Format : MPEG-4 Visual
Format profile : AdvancedSimple@L5
Format settings, BVOP : Yes
Format settings, QPel : No
Format settings, GMC : No warppoints
Format settings, Matrix : Custom
Codec ID : XVID
Codec ID/Hint : XviD
Duration : 1h 20mn
Bit rate : 826 Kbps
Width : 640 pixels
Height : 368 pixels
Display aspect ratio : 16:9
Frame rate : 23.976 fps
Resolution : 24 bits
Colorimetry : 4:2:0
Scan type : Progressive
Bits/(Pixel*Frame) : 0.146
Stream size : 476 MiB (68%)
Writing library : XviD 1.2.1 (UTC 2008-12-04)
Audio
ID : 1
Format : AC-3
Format/Info : Audio Coding 3
Codec ID : 2000
Duration : 1h 20mn
Bit rate mode : Constant
Bit rate : 384 Kbps
Channel(s) : 6 channels
Channel positions : Front: L C R, Surround: L R, LFE
Sampling rate : 48.0 KHz
Stream size : 221 MiB (32%)
Alignment : Split accross interleaves
Interleave, duration : 96 ms (2.30 video frames)
Interleave, preload duration : 96 ms
Language : Spanish
Sharing Widget
Download torrent
701.71 MB
seeders:22
leechers:6
Toy Story (hablada en español)
html bbcode Trackers
refresh
tracker name
Status
checked
seeders
leechers
downloads
udp://tracker.openbittorrent.com:80/announce
outdated
02 Apr 2013
-
-
-
udp://tracker.publicbt.com:80/announce
outdated
02 Apr 2013
-
-
-
http://tracker.openbittorrent.com/announce
outdated
02 Apr 2013
-
-
-
http://tracker.publicbt.com/announce
deleted
02 Apr 2013
-
-
-
µTorrent compatible trackers list
udp://tracker.openbittorrent.com:80/announce
udp://tracker.publicbt.com:80/announce
http://tracker.openbittorrent.com/announce
http://tracker.publicbt.com/announce
udp://tracker.openbittorrent.com/announce
Locations
name
Mininova
SumoTorrent
Torrent hash: 122464ce3a1a3e2621fd3ffd8d2ea72f30e9d574
All Comments
audio
vote 1 awful
2
3
4
5
6
7
8
9
10 best
0/10
video vote 1 awful
2
3
4
5
6
7
8
9
10 best
0/10
please, leave only comments related to that torrent
Not seeing the captcha?
Captcha *:
Post as a guest
or sign-in
Not seeing the captcha?
Captcha *:
reply
Advertising (remove)
Latest Forum Threads
What are you listening to right now? V8.2by Dezire_nV 53 sec. ago
Which Operating System Is The BEST?by fw7 1 min. ago
What are you playing right now? (Games)by Dezire_nV 7 min. ago
Please request ebooks and audio books here. V6by Itzy 8 min. ago
Best Movies 1900 -2014by AtomicTheory 10 min. ago
Emmy Award 2014by javz621 16 min. ago
Latest News
May'14 Updatesby KickassTorrents 1 month ago
April'14 Updatesby KickassTorrents 2 months ago
March upd.1 - Uploader rules fix and Torrents Day 2014by KickassTorrents 3 months ago
Blogroll
Question number (277)by man2014now 6 hours ago
Number 100by The.Phoenix 11 hours ago
Religion, Humanity, And The Search For Meaningby VikTSlick 16 hours ago
Outside my Window Part 3by johnno23 yesterday
Question number (276)by man2014now yesterday
Answer - 42by suicyco 2 days ago
Goodies
Firefox search plugin
uTorrent search template
Follow us on Twitter
Kickass wallpapers
Like us on Facebook
IRC official chat
Latest Searches
ava devine
just now
young and hungry
just now
out of the black
just now
seinfield
just now
greg allman
just now
malayalam movie 2013
just now
in country melody
just now
pearl necklace tiffany mynx
just now
macroeconomics
just now
graceland s01e01
just now
the ass factor #6
just now
Friends Links
Torrents.to
Torrent Downloads
TorrentReactor
Torrent Finder
Select Your Language
English
Afrikaans
Basque
Bengali
Bosnian
Chinese Simplified
Croatian
Czech
Danish
Dutch
Filipino
Finnish
French
Georgian
German
Greek
Hindi
Hungarian
Indonesian
Italian
Lithuanian
Malaysian
Norwegian
Pirate
Polish
Portuguese
Romanian
Russian
Serbian
Serbian-Cyrillic
Slovak
Spanish
Swedish
Telugu
Turkish
change language
rules
idea box
Achievements
trends
Latest Searches
torrent requests about
privacy
dmca
logos
contacts
api
chat
BitCoin: 19CWNopXCHSwWtWQ89NHC471LMn2Gy5j5G
Report a bug

